# xmcd CD database file
#
# Track frame offsets:
#	150
#	21900
#	42675
#	62550
#	81975
#	97725
#	122025
#	140700
#	159300
#	178425
#	194700
#	214950
#	234375
#	253950
#	273000
#
# Disc length: 3927 seconds
#
# Revision: 1
# Processed by: cddbd v1.5.1PL2 Copyright (c) Steve Scherf et al.
# Submitted via: freeDBTagger 0.8.2.1
#
DISCID=e20f550f
DTITLE=Do As Infinity - Do The Best“Great Supporters Selection” [CD2]
DYEAR=2006
DGENRE=misc
TTITLE0=夜鷹の夢
TTITLE1=TAO
TTITLE2=タダイマ
TTITLE3=Week!
TTITLE4=One or Eight
TTITLE5=new world
TTITLE6=深い森
TTITLE7=under the sun
TTITLE8=真実の詩
TTITLE9=菜ノ花畑
TTITLE10=Desire
TTITLE11=Tangerine Dream
TTITLE12=nice and easy
TTITLE13=BE FREE
TTITLE14=永遠
EXTD=
EXTT0=
EXTT1=
EXTT2=
EXTT3=
EXTT4=
EXTT5=
EXTT6=
EXTT7=
EXTT8=
EXTT9=
EXTT10=
EXTT11=
EXTT12=
EXTT13=
EXTT14=
PLAYORDER=
